<svg width="194" height="39" viewBox="0 0 194 39" fill="none" xmlns="http://www.w3.org/2000/svg">
<path d="M14.0405 28.2116C13.2961 28.4102 12.5144 28.559 11.6955 28.6583C10.8766 28.7576 9.94607 28.8196 8.90385 28.8444C8.95348 25.3455 8.87904 21.4372 8.68052 17.1194C8.482 12.7768 8.17181 8.94294 7.74996 5.61775C7.00552 5.6922 6.17422 5.77905 5.25607 5.87831C4.33792 5.97757 2.93589 6.13886 1.04996 6.3622C0.801813 5.64257 0.615702 4.93535 0.491628 4.24053C0.367554 3.5209 0.317924 2.8509 0.342739 2.23053C3.91607 1.5109 7.20404 1.0022 10.2066 0.704419C13.2092 0.406642 16.5964 0.245346 20.3683 0.22053C20.4676 0.543122 20.542 0.915345 20.5916 1.3372C20.6661 1.73423 20.7033 2.16849 20.7033 2.63997C20.7033 2.96257 20.6785 3.29757 20.6289 3.64497C20.604 3.99238 20.542 4.45146 20.4427 5.0222C19.599 5.0222 18.7057 5.0346 17.7627 5.05942C16.8446 5.08423 15.5666 5.12146 13.9289 5.17109C14.1274 7.23072 14.2638 9.36479 14.3383 11.5733C14.4376 13.757 14.4872 16.0524 14.4872 18.4594C14.4872 19.725 14.45 21.1146 14.3755 22.6283C14.3259 24.1172 14.2142 25.9783 14.0405 28.2116ZM24.0152 1.78386C24.6108 1.80868 25.1567 1.87072 25.653 1.96997C26.1493 2.06923 26.5587 2.20572 26.8813 2.37942C26.658 2.90053 26.4098 3.60775 26.1369 4.50109C25.8639 5.39442 25.653 6.23812 25.5041 7.0322C24.8093 7.13146 24.0772 7.2059 23.308 7.25553C22.5387 7.28034 21.7074 7.28034 20.8141 7.25553C20.69 6.85849 20.5908 6.46146 20.5163 6.06442C20.4667 5.66738 20.4419 5.27035 20.4419 4.87331C20.4419 4.42664 20.4791 3.99238 20.5535 3.57053C20.628 3.14868 20.7272 2.77646 20.8513 2.45386C21.3228 2.23053 21.8067 2.06923 22.303 1.96997C22.8241 1.8459 23.3948 1.78386 24.0152 1.78386ZM19.7719 11.0522C20.293 10.7544 20.8761 10.5311 21.5213 10.3822C22.1913 10.2085 22.8985 10.1216 23.643 10.1216C23.9904 10.1216 24.3378 10.1465 24.6852 10.1961C25.0574 10.2209 25.4172 10.2705 25.7646 10.345C25.2435 12.3302 24.8217 15.0846 24.4991 18.6083C24.1765 22.132 24.0152 25.7674 24.0152 29.5144C23.6182 29.6881 23.1219 29.8246 22.5263 29.9239C21.9556 30.0479 21.36 30.11 20.7396 30.11C20.4667 30.11 20.2185 30.0976 19.9952 30.0728C19.7967 30.0479 19.6106 30.0231 19.4369 29.9983C19.0398 26.5987 18.8661 23.2487 18.9158 19.9483C18.9902 16.6479 19.2756 13.6826 19.7719 11.0522ZM33.0861 24.9733C33.0861 25.7674 33.0985 26.6979 33.1233 27.765C33.1729 28.8072 33.2226 29.7378 33.2722 30.5566C32.7263 30.7303 32.0066 30.8668 31.1133 30.9661C30.2448 31.0902 29.4259 31.1522 28.6566 31.1522C28.3837 28.5715 28.1231 25.1718 27.875 20.9533C27.6516 16.7348 27.54 13.1739 27.54 10.2705C27.9866 10.0472 28.5822 9.87349 29.3266 9.74942C30.0959 9.60053 30.8776 9.52608 31.6716 9.52608C32.019 9.52608 32.3789 9.5509 32.7511 9.60053C33.1233 9.62535 33.5203 9.67497 33.9422 9.74942C33.8926 10.1713 33.8305 10.68 33.7561 11.2755C33.7065 11.8711 33.6568 12.5535 33.6072 13.3228C34.3516 12.1316 35.1829 11.2383 36.1011 10.6428C37.0192 10.0472 38.0242 9.74942 39.1161 9.74942C40.7787 9.74942 42.007 10.3574 42.8011 11.5733C43.62 12.7644 44.0294 14.5759 44.0294 17.0078C44.0294 18.9185 43.8681 21.1146 43.5455 23.5961C43.2477 26.0528 42.9252 27.9635 42.5777 29.3283C41.8333 29.3035 41.002 29.2415 40.0839 29.1422C39.1905 29.0429 38.2352 28.894 37.2177 28.6955C37.6396 26.3878 37.9622 24.2413 38.1855 22.2561C38.4089 20.2709 38.5205 18.5587 38.5205 17.1194C38.5205 16.0276 38.384 15.2459 38.1111 14.7744C37.8381 14.3029 37.4039 14.0672 36.8083 14.0672C36.1631 14.0672 35.5303 14.427 34.91 15.1466C34.2896 15.8415 33.7561 16.8092 33.3094 18.05C33.235 19.1915 33.1729 20.3702 33.1233 21.5861C33.0985 22.7772 33.0861 23.9063 33.0861 24.9733ZM62.423 23.0378C62.423 28.0752 61.6289 31.909 60.0408 34.5394C58.4775 37.1698 56.2317 38.485 53.3036 38.485C51.3184 38.485 49.7426 37.9266 48.5763 36.81C47.4349 35.7181 46.7897 34.2913 46.6408 32.5294C47.2363 32.0828 47.9312 31.6981 48.7252 31.3755C49.5441 31.0529 50.4002 30.8172 51.2936 30.6683C51.5169 32.2813 51.8147 33.4352 52.1869 34.13C52.5839 34.8248 53.105 35.1722 53.7502 35.1722C54.6436 35.1722 55.3508 34.4278 55.8719 32.9389C56.393 31.45 56.7032 29.2166 56.8025 26.2389C56.1821 27.2066 55.4873 27.9263 54.718 28.3978C53.9487 28.8444 53.0802 29.0678 52.1125 29.0678C50.3258 29.0678 48.8493 28.2489 47.683 26.6111C46.5167 24.9485 45.9336 22.8144 45.9336 20.2089C45.9336 18.5215 46.0452 16.9333 46.2686 15.4444C46.5167 13.9555 46.9758 12.0696 47.6458 9.78664C48.5639 9.78664 49.4449 9.83627 50.2886 9.93553C51.1571 10.0348 52.0504 10.1837 52.9686 10.3822C52.4226 12.4915 52.038 14.2409 51.8147 15.6305C51.6162 16.9953 51.5169 18.4346 51.5169 19.9483C51.5169 21.4372 51.7402 22.6531 52.1869 23.5961C52.6336 24.539 53.2291 25.0105 53.9736 25.0105C54.5443 25.0105 55.0654 24.7748 55.5369 24.3033C56.0084 23.807 56.4302 23.075 56.8025 22.1072C56.728 20.122 56.5543 18.1368 56.2813 16.1516C56.0084 14.1416 55.6858 12.5659 55.3136 11.4244C56.0084 11.1266 56.8769 10.8909 57.9191 10.7172C58.9862 10.5435 60.0408 10.4815 61.083 10.5311C61.4552 11.8711 61.7654 13.7694 62.0136 16.2261C62.2865 18.6579 62.423 20.9285 62.423 23.0378ZM75.0035 28.2116C74.2591 28.4102 73.4774 28.559 72.6585 28.6583C71.8396 28.7576 70.9091 28.8196 69.8669 28.8444C69.9165 25.3455 69.8421 21.4372 69.6435 17.1194C69.445 12.7768 69.1348 8.94294 68.713 5.61775C67.9685 5.6922 67.1372 5.77905 66.2191 5.87831C65.3009 5.97757 63.8989 6.13886 62.013 6.3622C61.7648 5.64257 61.5787 4.93535 61.4546 4.24053C61.3306 3.5209 61.2809 2.8509 61.3058 2.23053C64.8791 1.5109 68.1671 1.0022 71.1696 0.704419C74.1722 0.406642 77.5595 0.245346 81.3313 0.22053C81.4306 0.543122 81.505 0.915345 81.5546 1.3372C81.6291 1.73423 81.6663 2.16849 81.6663 2.63997C81.6663 2.96257 81.6415 3.29757 81.5919 3.64497C81.5671 3.99238 81.505 4.45146 81.4058 5.0222C80.5621 5.0222 79.6687 5.0346 78.7258 5.05942C77.8076 5.08423 76.5296 5.12146 74.8919 5.17109C75.0904 7.23072 75.2269 9.36479 75.3013 11.5733C75.4006 13.757 75.4502 16.0524 75.4502 18.4594C75.4502 19.725 75.413 21.1146 75.3385 22.6283C75.2889 24.1172 75.1772 25.9783 75.0035 28.2116ZM98.3718 17.1939C98.3718 19.2783 98.0616 21.7226 97.4413 24.5266C96.8209 27.3059 96.1757 29.4276 95.5057 30.8916C94.7116 30.8668 93.9052 30.7552 93.0863 30.5566C92.2674 30.3829 91.4609 30.1348 90.6668 29.8122C91.3616 27.6285 91.8952 25.4572 92.2674 23.2983C92.6644 21.1146 92.8629 19.0922 92.8629 17.2311C92.8629 15.8415 92.7264 14.8861 92.4535 14.365C92.2053 13.819 91.7587 13.5461 91.1135 13.5461C90.5179 13.5461 89.8976 13.8811 89.2524 14.5511C88.6072 15.1963 87.9992 16.1144 87.4285 17.3055C87.4037 18.4222 87.3789 19.3031 87.354 19.9483C87.354 20.5687 87.354 21.1518 87.354 21.6978C87.354 22.5166 87.3789 23.5092 87.4285 24.6755C87.4781 25.817 87.5526 26.9709 87.6518 28.1372C87.2052 28.2861 86.4855 28.4226 85.4929 28.5466C84.5252 28.6459 83.5946 28.6955 82.7013 28.6955C82.5027 26.0652 82.3414 23.3728 82.2174 20.6183C82.1181 17.839 82.0685 15.2335 82.0685 12.8016C82.0685 11.0398 82.1057 9.17868 82.1802 7.21831C82.2794 5.25794 82.3911 3.64498 82.5152 2.37942C82.937 2.13127 83.5326 1.94516 84.3018 1.82109C85.0711 1.6722 85.89 1.59775 86.7585 1.59775C87.1059 1.59775 87.4285 1.62257 87.7263 1.6722C88.0489 1.69701 88.4831 1.77146 89.029 1.89553C88.7313 3.43405 88.4583 5.13386 88.2102 6.99498C87.9868 8.85609 87.8007 10.8165 87.6518 12.8761C88.3714 11.8587 89.1779 11.0894 90.0713 10.5683C90.9646 10.0224 91.92 9.74942 92.9374 9.74942C94.7985 9.74942 96.1633 10.3574 97.0318 11.5733C97.9252 12.7644 98.3718 14.6379 98.3718 17.1939ZM105.926 1.78386C106.521 1.80868 107.067 1.87072 107.564 1.96997C108.06 2.06923 108.469 2.20572 108.792 2.37942C108.569 2.90053 108.321 3.60775 108.048 4.50109C107.775 5.39442 107.564 6.23812 107.415 7.0322C106.72 7.13146 105.988 7.2059 105.219 7.25553C104.449 7.28034 103.618 7.28034 102.725 7.25553C102.601 6.85849 102.501 6.46146 102.427 6.06442C102.377 5.66738 102.353 5.27035 102.353 4.87331C102.353 4.42664 102.39 3.99238 102.464 3.57053C102.539 3.14868 102.638 2.77646 102.762 2.45386C103.233 2.23053 103.717 2.06923 104.214 1.96997C104.735 1.8459 105.306 1.78386 105.926 1.78386ZM101.683 11.0522C102.204 10.7544 102.787 10.5311 103.432 10.3822C104.102 10.2085 104.809 10.1216 105.554 10.1216C105.901 10.1216 106.248 10.1465 106.596 10.1961C106.968 10.2209 107.328 10.2705 107.675 10.345C107.154 12.3302 106.732 15.0846 106.41 18.6083C106.087 22.132 105.926 25.7674 105.926 29.5144C105.529 29.6881 105.033 29.8246 104.437 29.9239C103.866 30.0479 103.271 30.11 102.65 30.11C102.377 30.11 102.129 30.0976 101.906 30.0728C101.707 30.0479 101.521 30.0231 101.348 29.9983C100.951 26.5987 100.777 23.2487 100.826 19.9483C100.901 16.6479 101.186 13.6826 101.683 11.0522ZM114.997 24.9733C114.997 25.7674 115.009 26.6979 115.034 27.765C115.084 28.8072 115.133 29.7378 115.183 30.5566C114.637 30.7303 113.917 30.8668 113.024 30.9661C112.155 31.0902 111.337 31.1522 110.567 31.1522C110.294 28.5715 110.034 25.1718 109.786 20.9533C109.562 16.7348 109.451 13.1739 109.451 10.2705C109.897 10.0472 110.493 9.87349 111.237 9.74942C112.007 9.60053 112.788 9.52608 113.582 9.52608C113.93 9.52608 114.29 9.5509 114.662 9.60053C115.034 9.62535 115.431 9.67497 115.853 9.74942C115.803 10.1713 115.741 10.68 115.667 11.2755C115.617 11.8711 115.568 12.5535 115.518 13.3228C116.262 12.1316 117.094 11.2383 118.012 10.6428C118.93 10.0472 119.935 9.74942 121.027 9.74942C122.689 9.74942 123.918 10.3574 124.712 11.5733C125.531 12.7644 125.94 14.5759 125.94 17.0078C125.94 18.9185 125.779 21.1146 125.456 23.5961C125.158 26.0528 124.836 27.9635 124.488 29.3283C123.744 29.3035 122.913 29.2415 121.995 29.1422C121.101 29.0429 120.146 28.894 119.128 28.6955C119.55 26.3878 119.873 24.2413 120.096 22.2561C120.32 20.2709 120.431 18.5587 120.431 17.1194C120.431 16.0276 120.295 15.2459 120.022 14.7744C119.749 14.3029 119.315 14.0672 118.719 14.0672C118.074 14.0672 117.441 14.427 116.821 15.1466C116.2 15.8415 115.667 16.8092 115.22 18.05C115.146 19.1915 115.084 20.3702 115.034 21.5861C115.009 22.7772 114.997 23.9063 114.997 24.9733ZM133.795 21.9211C133.795 23.7078 133.844 25.3331 133.943 26.7972C134.043 28.2365 134.192 29.6509 134.39 31.0405C133.745 31.2639 133.038 31.4252 132.268 31.5244C131.524 31.6237 130.631 31.6733 129.588 31.6733C129.266 29.5392 129.03 27.43 128.881 25.3455C128.757 23.2611 128.695 21.0029 128.695 18.5711C128.695 15.8166 128.782 12.8389 128.956 9.63775C129.154 6.41183 129.402 3.89312 129.7 2.08164C130.569 2.05683 131.636 2.14368 132.901 2.3422C134.192 2.5159 135.135 2.73923 135.73 3.0122C135.333 4.79886 134.973 7.00738 134.651 9.63775C134.328 12.2433 134.092 14.7868 133.943 17.2683C135.06 16.2013 136.164 14.9978 137.256 13.6578C138.348 12.3178 139.701 10.5063 141.313 8.22331C142.008 8.57072 142.703 9.0546 143.398 9.67497C144.093 10.2953 144.639 10.9157 145.036 11.5361C143.969 12.9257 142.815 14.2409 141.574 15.4816C140.333 16.6976 138.844 17.9755 137.107 19.3155C138.125 20.5315 139.291 21.6978 140.606 22.8144C141.946 23.9063 143.621 25.1098 145.631 26.425C144.763 27.5168 144.006 28.3233 143.361 28.8444C142.716 29.3655 142.046 29.7378 141.351 29.9611C139.961 28.7948 138.671 27.5665 137.48 26.2761C136.288 24.9609 135.085 23.4224 133.869 21.6605L133.795 21.6978C133.795 21.7226 133.795 21.7598 133.795 21.8094C133.795 21.8342 133.795 21.8715 133.795 21.9211ZM152.42 17.3428C152.917 17.4916 153.413 17.6033 153.909 17.6778C154.43 17.7522 154.914 17.7894 155.361 17.7894C155.634 17.7894 155.907 17.777 156.18 17.7522C156.453 17.7274 156.639 17.7026 156.738 17.6778C156.912 17.0326 157.036 16.437 157.11 15.8911C157.209 15.3203 157.259 14.8116 157.259 14.365C157.259 13.6205 157.147 13.0746 156.924 12.7272C156.701 12.3798 156.341 12.2061 155.845 12.2061C155.15 12.2061 154.492 12.6776 153.872 13.6205C153.252 14.5387 152.768 15.7794 152.42 17.3428ZM158.45 22.8889C159.17 23.0129 159.902 23.2735 160.646 23.6705C161.391 24.0676 162.011 24.5142 162.507 25.0105C162.036 26.4002 160.994 27.6409 159.381 28.7328C157.768 29.7998 155.932 30.3333 153.872 30.3333C151.514 30.3333 149.678 29.5765 148.363 28.0628C147.048 26.5242 146.39 24.4522 146.39 21.8466C146.39 18.5463 147.37 15.6181 149.331 13.0622C151.316 10.4815 153.624 9.19109 156.254 9.19109C158.09 9.19109 159.542 9.69979 160.609 10.7172C161.701 11.7098 162.247 13.0498 162.247 14.7372C162.247 15.5313 162.16 16.3874 161.986 17.3055C161.837 18.2237 161.627 19.055 161.354 19.7994C160.708 20.0972 159.914 20.3205 158.971 20.4694C158.028 20.5935 156.862 20.6555 155.472 20.6555C154.902 20.6555 154.319 20.6183 153.723 20.5439C153.152 20.4694 152.569 20.3578 151.974 20.2089C151.949 20.6059 151.924 20.9037 151.899 21.1022C151.899 21.3007 151.899 21.4868 151.899 21.6605C151.899 23.3479 152.147 24.6755 152.644 25.6433C153.165 26.6111 153.872 27.095 154.765 27.095C155.46 27.095 156.167 26.6607 156.887 25.7922C157.631 24.9237 158.152 23.9559 158.45 22.8889ZM170.176 21.2883C170.251 22.7772 170.362 24.2289 170.511 25.6433C170.66 27.0329 170.846 28.3978 171.069 29.7378C170.648 29.8866 170.164 29.9859 169.618 30.0355C169.072 30.11 168.451 30.1348 167.757 30.11C167.36 30.0852 167.037 30.0479 166.789 29.9983C166.541 29.9735 166.293 29.9115 166.044 29.8122C165.399 26.76 164.94 23.4224 164.667 19.7994C164.394 16.1516 164.369 12.8265 164.593 9.82386C164.965 9.67497 165.387 9.57572 165.858 9.52608C166.33 9.45164 166.901 9.41442 167.571 9.41442C168.191 9.41442 168.762 9.46405 169.283 9.56331C169.804 9.63775 170.275 9.76183 170.697 9.93553C170.598 10.4566 170.511 11.0274 170.437 11.6478C170.362 12.2681 170.3 12.9133 170.251 13.5833C170.846 11.9952 171.603 10.742 172.521 9.82386C173.439 8.90572 174.382 8.44664 175.35 8.44664C176.566 8.44664 177.509 8.94294 178.179 9.93553C178.849 10.9033 179.184 12.2929 179.184 14.1044C179.184 14.5263 179.184 14.8613 179.184 15.1094C179.184 15.3328 179.171 15.5437 179.147 15.7422C178.551 15.9407 177.819 16.0772 176.951 16.1516C176.107 16.2013 175.214 16.2013 174.271 16.1516C174.295 15.6553 174.308 15.3203 174.308 15.1466C174.333 14.9481 174.345 14.7744 174.345 14.6255C174.345 13.9307 174.258 13.4096 174.084 13.0622C173.936 12.7148 173.687 12.5411 173.34 12.5411C172.72 12.5411 172.112 13.3352 171.516 14.9233C170.945 16.4866 170.499 18.6083 170.176 21.2883ZM188.389 17.9383C190.423 19.2783 191.776 20.4446 192.446 21.4372C193.116 22.4298 193.451 23.534 193.451 24.75C193.451 26.6359 192.706 28.1992 191.217 29.44C189.753 30.6807 187.942 31.3011 185.783 31.3011C183.798 31.3011 182.148 30.6683 180.832 29.4028C179.542 28.1124 178.897 26.5242 178.897 24.6383C179.393 24.415 180.014 24.2413 180.758 24.1172C181.502 23.9683 182.148 23.9063 182.694 23.9311C182.669 25.2463 182.929 26.3009 183.475 27.095C184.021 27.8642 184.778 28.2489 185.746 28.2489C186.465 28.2489 187.024 28.0503 187.421 27.6533C187.843 27.2315 188.054 26.6483 188.054 25.9039C188.054 25.2587 187.83 24.6507 187.384 24.08C186.962 23.4844 186.006 22.6903 184.517 21.6978C182.532 20.3578 181.217 19.2039 180.572 18.2361C179.951 17.2435 179.641 16.1392 179.641 14.9233C179.641 13.1118 180.274 11.6353 181.54 10.4939C182.83 9.32757 184.505 8.74442 186.565 8.74442C188.599 8.74442 190.225 9.24072 191.441 10.2333C192.681 11.2011 193.488 12.6403 193.86 14.5511C193.314 14.8985 192.681 15.1715 191.962 15.37C191.267 15.5685 190.386 15.705 189.319 15.7794C189.145 14.489 188.848 13.5461 188.426 12.9505C188.004 12.355 187.433 12.0572 186.714 12.0572C186.143 12.0572 185.696 12.2309 185.374 12.5783C185.076 12.9257 184.927 13.4096 184.927 14.03C184.927 14.6255 185.138 15.1963 185.56 15.7422C185.981 16.2633 186.924 16.9953 188.389 17.9383Z" fill="#111624"/>
</svg>
